<?xml version="1.0" standalone="no"?><!DOCTYPE svg PUBLIC "-//W3C//DTD SVG 1.1//EN" "http://www.w3.org/Graphics/SVG/1.1/DTD/svg11.dtd"><svg t="1552990846363" class="icon" style="" viewBox="0 0 1024 1024" version="1.1" xmlns="http://www.w3.org/2000/svg" p-id="6875" xmlns:xlink="http://www.w3.org/1999/xlink" width="200" height="200"><defs><style type="text/css"></style></defs><path d="M483.221072 166.412041c-39.014111 45.034807-71.887112 93.079962-108.011288 144.015052-26.972719 39.014111-54.065851 78.028222-75.017874 114.031985-50.935089 83.928504-77.907808 155.93603-77.907808 203.860771 0 161.956726 128.963311 293.930386 288.030103 293.930386 158.946378 0 288.030103-131.973659 288.030104-293.930386 0-48.045155-26.972719-119.932267-78.028222-206.871119-20.952023-36.003763-45.034807-75.017874-75.017874-114.031985-32.993415-48.045155-68.997178-95.969897-108.011289-144.015052-9.031044-11.920978-18.062088-20.952023-26.972719-32.993415l-27.093133 36.003763zM162.317968 628.319849c0-62.976482 29.983067-141.004704 86.938852-236.854186 20.952023-39.014111 48.045155-78.028222 78.028222-119.932267 36.003763-50.935089 71.887112-98.980245 110.901223-146.904986 15.05174-18.062088 29.983067-39.014111 48.045156-56.955785l3.010348-3.010348 23.96237-26.972719 23.962371 26.972719 3.010348 3.010348c3.010348 3.010348 6.020696 6.020696 9.031044 11.920978C561.128881 91.514581 573.170273 106.566322 585.211665 124.62841c39.014111 48.045155 75.017874 95.969897 110.901223 146.904986 29.983067 41.904045 54.065851 80.918156 78.028222 119.932267 56.955786 95.969897 86.938852 173.998119 86.938852 236.854186-6.020696 197.960489-158.946378 356.906867-350.886171 356.906868-194.829727 0.120414-347.875823-158.825964-347.875823-356.906868z m0 0" fill="#0080FF" p-id="6876"></path><path d="M510.314205 877.335842c-134.984008 0-242.995296-108.011289-242.995296-242.995296s121.979304-317.170273 185.196613-322.5889c57.798683-4.936971 36.726246 104.519285 134.381938 70.923801 90.190028-31.066792 166.412041 153.648166 166.412041 251.665099-3.010348 135.104421-111.021637 242.995296-242.995296 242.995296z m0 0" fill="#B3D9FF" p-id="6877"></path></svg>